<svg id="SvgjsSvg1017" width="288" height="288" xmlns="http://www.w3.org/2000/svg" version="1.1" xmlns:xlink="http://www.w3.org/1999/xlink" xmlns:svgjs="http://svgjs.com/svgjs"><defs id="SvgjsDefs1018"></defs><g id="SvgjsG1019"><svg xmlns="http://www.w3.org/2000/svg" enable-background="new 0 0 512 512" viewBox="0 0 512 512" width="288" height="288"><path fill="#ff6699" d="M491.9,431.5v53.8c0,11.8-9.6,21.4-21.4,21.4h-429c-11.8,0-21.4-9.6-21.4-21.4v-53.8c0-70.7,57.3-128,128-128
		h215.7C434.6,303.5,491.9,360.8,491.9,431.5z" class="colorc9d2d7 svgShape"></path><path fill="#ff6699" d="M379.3,381.5H132.7c-24.6,0-42.6-23.1-36.6-46.9c52-208.4,65.6-261.9,69-275.2c0.5-0.5,12.4-54,92.8-52.8
		c44.8,0.7,79.7,21.3,89,52.5l-0.1,0.1c3.7,14,68.4,272.8,69,275.5C421.9,358.5,403.9,381.5,379.3,381.5z" class="colorc9d2d7 svgShape"></path><path fill="#ff6699" d="M335.5,173.6c-6,64.5-50.9,101.6-79.4,101.6c-30.5,0-72.3-38.5-79.5-101.6c-6.9-61.5,35.6-82.1,79.5-82.1
		C300,91.4,341.3,111.9,335.5,173.6z" class="colorc9d2d7 svgShape"></path><path fill="#fdece5" d="M335.5,173.6H176.7c-6.9-61.6,35.6-82.2,79.5-82.2C300,91.4,341.4,111.9,335.5,173.6z" class="colorfdece5 svgShape"></path><path fill="#525252" d="M171.4,174.3c7.2,63.6,49.6,106.3,84.8,106.3c30.5,0,78.2-37.9,84.7-106.4v-0.1c5.4-56.9-28.3-88-84.7-88
		C200.4,86.1,164.9,116.5,171.4,174.3C171.4,174.2,171.4,174.2,171.4,174.3z M256.1,96.8c48.3,0,76.9,24.1,74.4,71.5H181.6
		C178.1,119.5,209,96.8,256.1,96.8z M256.1,269.9c-25,0-64.3-32.4-73.3-91h146.6C321.8,235.4,282.4,269.9,256.1,269.9z" class="color81889a svgShape"></path><path fill="#525252" d="M413.6,307.9c-50.3-201.3-57.4-229.2-63.5-253.6C340.6,22.1,304.4,0.7,258,0c-83.3-1.2-95.6,54.2-96.1,54.6
		c-3.4,13.1-16.2,63.7-63.5,253.2c-48.9,19.8-83.6,67.7-83.6,123.6v53.8c0,14.7,12,26.7,26.7,26.7h429.1c14.7,0,26.7-12,26.7-26.7
		v-53.8C497.2,375.6,462.6,327.7,413.6,307.9z M172.2,57.3c8.1-31.8,50.3-47.1,85.6-46.6c34.1,0.5,72.7,15.2,82.1,46.7
		c1.3,4.8,49.7,198.2,71.3,284.8c4.5,17.9-9.1,35.2-27.6,35.2H128.3c-18.5,0-32-17.3-27.6-35.2C154.6,126.4,168.7,71.1,172.2,57.3z
		 M486.6,485.3c0,8.8-7.2,16-16,16H41.5c-8.8,0-16-7.2-16-16v-53.8c0-48.7,28.5-90.8,69.7-110.6c-1.5,6.1-3.1,12.3-4.7,18.7
		c-6.2,24.6,12.5,48.5,37.9,48.5h255.3c25.4,0,44.1-23.8,37.9-48.5c-0.1-0.4-1.8-7.3-4.7-18.6c41.2,19.8,69.7,61.9,69.7,110.6
		L486.6,485.3L486.6,485.3z" class="color81889a svgShape"></path></svg></g></svg>