<svg id="SvgjsSvg1001" width="288" height="288" xmlns="http://www.w3.org/2000/svg" version="1.1" xmlns:xlink="http://www.w3.org/1999/xlink" xmlns:svgjs="http://svgjs.com/svgjs"><defs id="SvgjsDefs1002"></defs><g id="SvgjsG1008"><svg xmlns="http://www.w3.org/2000/svg" data-name="Layer 1" viewBox="0 0 32 32" width="288" height="288"><path fill="#1d4ed8" d="M26 11.54a3.12 3.12 0 0 0-1.85-.54h-2.06a2.1 2.1 0 0 0-1.27.4 7.94 7.94 0 0 1-9.63 0 2.1 2.1 0 0 0-1.28-.4H7.85a3.13 3.13 0 0 0-1.85.54 3 3 0 0 0-.82 4l8.18 13.91A3.13 3.13 0 0 0 15.59 31a3 3 0 0 0 3-1.45l8.25-14a3 3 0 0 0-.84-4.01Z" class="color7dccfc svgShape"></path><circle cx="16" cy="5" r="5" fill="#1d4ed8" class="color7dccfc svgShape"></circle></svg></g></svg>